<?xml version="1.0" encoding="UTF-8" standalone="no"?>
<!-- Generator: Adobe Illustrator 9.0, SVG Export Plug-In  -->

<!-- This set of SVG files is a complete cards game with figures, numbers	-->

<!--    and backs of cards completely designed in SVG.				-->

<!--    									-->

<!--    Copyright (C) 2004 David Bellot						-->

<!--										-->

<!--    This library is free software; you can redistribute it and/or		-->

<!--    modify it under the terms of the GNU Lesser General Public		-->

<!--    License as published by the Free Software Foundation; either		-->

<!--    version 2 of the License, or (at your option) any later version		-->

<!--										-->

<!--    This library is distributed in the hope that it will be useful,		-->

<!--    but WITHOUT ANY WARRANTY; without even the implied warranty of		-->

<!--    MERCHANTABILITY or FITNESS FOR A PARTICULAR PURPOSE.  See the GNU	-->

<!--    Lesser General Public License for more details.				-->

<!--										-->

<!--    You should have received a copy of the GNU Lesser General Public	-->

<!--    License along with this library; if not, write to the Free Software	-->

<!--    Foundation, Inc., 59 Temple Place, Suite 330, Boston, MA 02111-1307  USA-->

<!--										-->

<!--    Contact the author David Bellot at bellot@stat.berkeley.edu or 		-->

<!--    david.bellot@free.fr or yimyom@users.sourceforge.net			-->

<svg
   xmlns:dc="http://purl.org/dc/elements/1.1/"
   xmlns:cc="http://creativecommons.org/ns#"
   xmlns:rdf="http://www.w3.org/1999/02/22-rdf-syntax-ns#"
   xmlns:svg="http://www.w3.org/2000/svg"
   xmlns="http://www.w3.org/2000/svg"
   xmlns:xlink="http://www.w3.org/1999/xlink"
   xmlns:sodipodi="http://sodipodi.sourceforge.net/DTD/sodipodi-0.dtd"
   xmlns:inkscape="http://www.inkscape.org/namespaces/inkscape"
   width="208"
   height="303"
   viewBox="0 0 167.08643 242.66748"
   xml:space="preserve"
   id="svg2"
   sodipodi:version="0.32"
   inkscape:version="0.92.4 (5da689c313, 2019-01-14)"
   sodipodi:docname="01_of_hearts_A.svg"
   inkscape:output_extension="org.inkscape.output.svg.inkscape"
   version="1.0"><metadata
   id="metadata90"><rdf:RDF><cc:Work
       rdf:about=""><dc:format>image/svg+xml</dc:format><dc:type
         rdf:resource="http://purl.org/dc/dcmitype/StillImage" /></cc:Work></rdf:RDF></metadata><defs
   id="defs88" /><sodipodi:namedview
   inkscape:window-height="1671"
   inkscape:window-width="3200"
   inkscape:pageshadow="2"
   inkscape:pageopacity="0.0"
   guidetolerance="10.0"
   gridtolerance="10.0"
   objecttolerance="10.0"
   borderopacity="1.0"
   bordercolor="#666666"
   pagecolor="#ffffff"
   id="base"
   inkscape:zoom="1.242853"
   inkscape:cx="289.632"
   inkscape:cy="155.50654"
   inkscape:window-x="0"
   inkscape:window-y="55"
   inkscape:current-layer="svg2"
   inkscape:showpageshadow="false"
   width="208px"
   height="303px"
   showgrid="false"
   inkscape:window-maximized="1" />
	<path
   id="path5"
   d="m 160.36133,232.49689 c 0,5.63351 -2.96509,10.23811 -6.60107,10.23811 H 6.8913286 c -3.6275399,0 -6.59262705,-4.6046 -6.59262705,-10.23811 v -340.41143 c 0,-5.6255 2.96508715,-10.23812 6.59262705,-10.23812 H 153.76026 c 3.63598,0 6.60107,4.61262 6.60107,10.23812 z"
   style="fill:#ffffff;fill-rule:nonzero;stroke:#000000;stroke-width:0.59740311;stroke-miterlimit:4"
   inkscape:connector-curvature="0" />
<g
   style="fill:#e61408;fill-opacity:1;fill-rule:nonzero;stroke:#000000;stroke-miterlimit:4"
   id="g2192"
   transform="matrix(0.96083831,0,0,1.4857463,1.0135864,-117.65932)">
			<path
   style="fill:#e61408;fill-opacity:1;stroke:none"
   d="m 10.987793,25.827148 v -1.46875 h 0.661621 L 14.682129,7.7958984 h 1.280762 l 3.044921,16.5624996 h 0.761231 v 1.46875 h -3.77002 v -1.46875 h 0.785645 l -0.664551,-3.6875 h -3.020996 l -0.676269,3.6875 h 0.966308 v 1.46875 z m 2.377441,-6.625 h 2.48877 l -1.232422,-6.884765 z"
   id="path2194"
   inkscape:connector-curvature="0" />
		</g><g
   style="fill:#e61408;fill-opacity:1;fill-rule:nonzero;stroke:#000000;stroke-miterlimit:4"
   id="g2196"
   transform="matrix(0.96083831,0,0,1.4857463,-0.33172836,-117.66004)">
			<path
   style="fill:#e61408;fill-opacity:1;stroke:none"
   d="m 155.51074,216.40918 v 1.46875 h -0.66113 l -3.0332,16.5625 h -1.28125 l -3.04493,-16.5625 h -0.76074 v -1.46875 H 150.5 v 1.46875 h -0.78613 l 0.66504,3.6875 h 3.0205 l 0.67676,-3.6875 h -0.96679 v -1.46875 z m -2.37793,6.625 h -2.48828 l 1.23242,6.88477 z"
   id="path2198"
   inkscape:connector-curvature="0" />
		</g><path
   style="fill:#e61408;fill-rule:nonzero;stroke:none;stroke-width:1.19480622;stroke-miterlimit:4"
   d="m 72.768379,38.309301 c -4.138916,0.01378 -7.504579,5.484113 -7.477215,12.196076 0.05807,14.232854 11.618822,24.52597 15.026792,35.767709 3.407977,-11.241739 14.992889,-21.534855 15.050914,-35.767709 0.02736,-6.711963 -3.338293,-12.182302 -7.477216,-12.196076 -4.138922,-0.01307 -7.561496,5.433745 -7.573698,12.158783 -0.0122,-6.725038 -3.41065,-12.171857 -7.549577,-12.158783 z"
   id="path2170"
   inkscape:connector-curvature="0" /><path
   id="path2225"
   d="m 13.516085,-74.243563 c -1.244506,0.0042 -2.256509,1.648989 -2.248275,3.667171 0.01744,4.279601 3.493599,7.374581 4.518324,10.754799 1.024724,-3.380218 4.508128,-6.475198 4.525577,-10.754799 0.0083,-2.018182 -1.00378,-3.66303 -2.248285,-3.667171 -1.244518,-0.0039 -2.273632,1.633843 -2.277292,3.655958 -0.0037,-2.022115 -1.025533,-3.659889 -2.270049,-3.655958 z"
   style="fill:#e61408;fill-rule:nonzero;stroke:none;stroke-width:1.19480622;stroke-miterlimit:4"
   inkscape:connector-curvature="0" /><use
   x="0"
   y="0"
   xlink:href="#path2225"
   id="use2231"
   transform="matrix(1,0,0,-1,129.08052,124.12857)"
   width="167.08643"
   height="242.66748" /></svg>