<?xml version="1.0" encoding="UTF-8" standalone="no"?>
<!-- Generator: Adobe Illustrator 9.0, SVG Export Plug-In  -->

<!-- This set of SVG files is a complete cards game with figures, numbers	-->

<!--    and backs of cards completely designed in SVG.				-->

<!--    									-->

<!--    Copyright (C) 2004 David Bellot						-->

<!--										-->

<!--    This library is free software; you can redistribute it and/or		-->

<!--    modify it under the terms of the GNU Lesser General Public		-->

<!--    License as published by the Free Software Foundation; either		-->

<!--    version 2 of the License, or (at your option) any later version		-->

<!--										-->

<!--    This library is distributed in the hope that it will be useful,		-->

<!--    but WITHOUT ANY WARRANTY; without even the implied warranty of		-->

<!--    MERCHANTABILITY or FITNESS FOR A PARTICULAR PURPOSE.  See the GNU	-->

<!--    Lesser General Public License for more details.				-->

<!--										-->

<!--    You should have received a copy of the GNU Lesser General Public	-->

<!--    License along with this library; if not, write to the Free Software	-->

<!--    Foundation, Inc., 59 Temple Place, Suite 330, Boston, MA 02111-1307  USA-->

<!--										-->

<!--    Contact the author David Bellot at bellot@stat.berkeley.edu or 		-->

<!--    david.bellot@free.fr or yimyom@users.sourceforge.net			-->

<svg
   xmlns:dc="http://purl.org/dc/elements/1.1/"
   xmlns:cc="http://creativecommons.org/ns#"
   xmlns:rdf="http://www.w3.org/1999/02/22-rdf-syntax-ns#"
   xmlns:svg="http://www.w3.org/2000/svg"
   xmlns="http://www.w3.org/2000/svg"
   xmlns:xlink="http://www.w3.org/1999/xlink"
   xmlns:sodipodi="http://sodipodi.sourceforge.net/DTD/sodipodi-0.dtd"
   xmlns:inkscape="http://www.inkscape.org/namespaces/inkscape"
   width="208"
   height="303"
   viewBox="0 0 167.08643 242.66748"
   xml:space="preserve"
   id="svg2"
   sodipodi:version="0.32"
   inkscape:version="0.92.4 (5da689c313, 2019-01-14)"
   sodipodi:docname="02_of_hearts.svg"
   inkscape:output_extension="org.inkscape.output.svg.inkscape"
   version="1.0"><metadata
   id="metadata90"><rdf:RDF><cc:Work
       rdf:about=""><dc:format>image/svg+xml</dc:format><dc:type
         rdf:resource="http://purl.org/dc/dcmitype/StillImage" /></cc:Work></rdf:RDF></metadata><defs
   id="defs88" /><sodipodi:namedview
   inkscape:window-height="1671"
   inkscape:window-width="3200"
   inkscape:pageshadow="2"
   inkscape:pageopacity="0.0"
   guidetolerance="10.0"
   gridtolerance="10.0"
   objecttolerance="10.0"
   borderopacity="1.0"
   bordercolor="#666666"
   pagecolor="#ffffff"
   id="base"
   inkscape:zoom="1.7576595"
   inkscape:cx="59.942129"
   inkscape:cy="100.25972"
   inkscape:window-x="0"
   inkscape:window-y="55"
   inkscape:current-layer="svg2"
   inkscape:showpageshadow="false"
   width="208px"
   height="303px"
   showgrid="false"
   inkscape:window-maximized="1" />
	<path
   id="path5"
   d="m 160.36133,232.49688 c 0,5.63351 -2.96509,10.23813 -6.60107,10.23813 H 6.8913283 c -3.6275397,0 -6.59262675,-4.60462 -6.59262675,-10.23813 v -340.41141 c 0,-5.62551 2.96508705,-10.23812 6.59262675,-10.23812 H 153.76026 c 3.63598,0 6.60107,4.61261 6.60107,10.23812 z"
   style="fill:#ffffff;fill-rule:nonzero;stroke:#000000;stroke-width:0.59740311;stroke-miterlimit:4"
   inkscape:connector-curvature="0" /><g
   style="fill:#e61408;fill-opacity:1;fill-rule:nonzero;stroke:#000000;stroke-miterlimit:4"
   id="g2429"
   transform="matrix(0.96083833,0,0,1.4857462,1.6141103,-117.91394)">
			<path
   style="fill:#e61408;fill-opacity:1;stroke:none"
   d="m 12.487793,12.404785 h -0.65625 V 8.5297852 c 0.443359,-0.3017578 0.880371,-0.5283203 1.311523,-0.6796875 0.431153,-0.1508789 0.864258,-0.2265625 1.299805,-0.2265625 1.023438,0 1.823242,0.4702148 2.399414,1.409668 0.576172,0.9399414 0.864258,2.2485348 0.864258,3.9262698 0,1.194336 -0.158691,2.265136 -0.475098,3.21289 -0.316406,0.947754 -0.919922,2.070801 -1.80957,3.369629 l -2.243164,3.300293 h 3.809082 v -2.125 h 0.75 v 5.28125 h -5.96875 v -2.941406 l 1.191406,-1.844727 c 1.026367,-1.574219 1.709473,-2.914062 2.049317,-4.020508 0.339355,-1.105957 0.509277,-2.39746 0.509277,-3.875 0,-1.396484 -0.129395,-2.460449 -0.388184,-3.190918 -0.258789,-0.7304683 -0.634277,-1.0961908 -1.127441,-1.0961908 -0.428711,0 -0.770019,0.2885742 -1.024902,0.8652344 -0.254883,0.5766604 -0.418457,1.4130864 -0.490723,2.5097654 z"
   id="path2431"
   inkscape:connector-curvature="0" />
		</g><g
   style="fill:#e61408;fill-opacity:1;fill-rule:nonzero;stroke:#000000;stroke-miterlimit:4"
   id="g2433"
   transform="matrix(0.96083833,0,0,1.4857462,-0.81214755,-117.91249)">
			<path
   style="fill:#e61408;fill-opacity:1;stroke:none"
   d="m 153.88574,230.17285 h 0.65625 v 3.875 c -0.44336,0.30274 -0.88086,0.5293 -1.31152,0.67969 -0.43067,0.15137 -0.86426,0.22656 -1.29981,0.22656 -1.02343,0 -1.82324,-0.46972 -2.39941,-1.40918 -0.57617,-0.94043 -0.86426,-2.24902 -0.86426,-3.92676 0,-1.19336 0.15821,-2.26464 0.47461,-3.21289 0.31641,-0.94726 0.91992,-2.07031 1.81055,-3.36914 l 2.24219,-3.30078 h -3.8086 v 2.125 h -0.75 v -5.28125 h 5.96875 v 2.94141 l -1.1914,1.8457 c -1.02637,1.57422 -1.70899,2.91406 -2.04883,4.01953 -0.33985,1.10645 -0.50977,2.39844 -0.50977,3.875 0,1.39649 0.12891,2.46094 0.38867,3.19141 0.25782,0.73047 0.63379,1.0957 1.12696,1.0957 0.42871,0 0.76953,-0.28808 1.02539,-0.86523 0.2539,-0.57617 0.41797,-1.41211 0.49023,-2.50977 z"
   id="path2435"
   inkscape:connector-curvature="0" />
		</g>
<path
   style="fill:#e61408;fill-rule:nonzero;stroke:none;stroke-width:1.19480622;stroke-miterlimit:4"
   d="m 72.768377,-98.142341 c -4.138917,0.01382 -7.504579,5.484113 -7.477215,12.196076 0.05803,14.232854 11.618822,24.525969 15.026795,35.767705 3.407973,-11.241736 14.992884,-21.534851 15.05091,-35.767705 0.02737,-6.711963 -3.338293,-12.182302 -7.477215,-12.196076 -4.138923,-0.01307 -7.5615,5.433747 -7.573695,12.158784 -0.01219,-6.725037 -3.410652,-12.171858 -7.54958,-12.158784 z"
   id="path2170"
   inkscape:connector-curvature="0" /><path
   id="path2225"
   d="m 13.516084,-74.24356 c -1.244506,0.0042 -2.256509,1.648988 -2.248274,3.66717 0.01744,4.279603 3.493598,7.374582 4.518322,10.754799 1.024725,-3.380217 4.508129,-6.475196 4.525578,-10.754799 0.0082,-2.018182 -1.003779,-3.663029 -2.248285,-3.66717 -1.244516,-0.0039 -2.273631,1.633843 -2.277293,3.655958 -0.0037,-2.022115 -1.025531,-3.659889 -2.270048,-3.655958 z"
   style="fill:#e61408;fill-rule:nonzero;stroke:none;stroke-width:1.19480622;stroke-miterlimit:4"
   inkscape:connector-curvature="0" /><use
   x="0"
   y="0"
   xlink:href="#path2225"
   id="use2231"
   transform="matrix(1,0,0,-1,129.08051,124.12858)"
   width="167.08643"
   height="242.66748" /><use
   x="0"
   y="0"
   xlink:href="#path2170"
   id="use2193"
   transform="matrix(1,0,0,-1,-1.8982987e-6,124.58236)"
   width="167.08643"
   height="242.66748" /></svg>