<?xml version="1.0" encoding="UTF-8" standalone="no"?>
<!-- Generator: Adobe Illustrator 9.0, SVG Export Plug-In  -->

<!-- This set of SVG files is a complete cards game with figures, numbers	-->

<!--    and backs of cards completely designed in SVG.				-->

<!--    									-->

<!--    Copyright (C) 2004 David Bellot						-->

<!--										-->

<!--    This library is free software; you can redistribute it and/or		-->

<!--    modify it under the terms of the GNU Lesser General Public		-->

<!--    License as published by the Free Software Foundation; either		-->

<!--    version 2 of the License, or (at your option) any later version		-->

<!--										-->

<!--    This library is distributed in the hope that it will be useful,		-->

<!--    but WITHOUT ANY WARRANTY; without even the implied warranty of		-->

<!--    MERCHANTABILITY or FITNESS FOR A PARTICULAR PURPOSE.  See the GNU	-->

<!--    Lesser General Public License for more details.				-->

<!--										-->

<!--    You should have received a copy of the GNU Lesser General Public	-->

<!--    License along with this library; if not, write to the Free Software	-->

<!--    Foundation, Inc., 59 Temple Place, Suite 330, Boston, MA 02111-1307  USA-->

<!--										-->

<!--    Contact the author David Bellot at bellot@stat.berkeley.edu or 		-->

<!--    david.bellot@free.fr or yimyom@users.sourceforge.net			-->

<svg
   xmlns:dc="http://purl.org/dc/elements/1.1/"
   xmlns:cc="http://creativecommons.org/ns#"
   xmlns:rdf="http://www.w3.org/1999/02/22-rdf-syntax-ns#"
   xmlns:svg="http://www.w3.org/2000/svg"
   xmlns="http://www.w3.org/2000/svg"
   xmlns:xlink="http://www.w3.org/1999/xlink"
   xmlns:sodipodi="http://sodipodi.sourceforge.net/DTD/sodipodi-0.dtd"
   xmlns:inkscape="http://www.inkscape.org/namespaces/inkscape"
   width="208"
   height="303"
   viewBox="0 0 167.08643 242.66748"
   xml:space="preserve"
   id="svg2"
   sodipodi:version="0.32"
   inkscape:version="0.92.4 (5da689c313, 2019-01-14)"
   sodipodi:docname="05_of_hearts.svg"
   inkscape:output_extension="org.inkscape.output.svg.inkscape"
   version="1.0"><metadata
   id="metadata90"><rdf:RDF><cc:Work
       rdf:about=""><dc:format>image/svg+xml</dc:format><dc:type
         rdf:resource="http://purl.org/dc/dcmitype/StillImage" /></cc:Work></rdf:RDF></metadata><defs
   id="defs88" /><sodipodi:namedview
   inkscape:window-height="1671"
   inkscape:window-width="3200"
   inkscape:pageshadow="2"
   inkscape:pageopacity="0.0"
   guidetolerance="10.0"
   gridtolerance="10.0"
   objecttolerance="10.0"
   borderopacity="1.0"
   bordercolor="#666666"
   pagecolor="#ffffff"
   id="base"
   inkscape:zoom="1.242853"
   inkscape:cx="-1.0068486"
   inkscape:cy="130.96239"
   inkscape:window-x="0"
   inkscape:window-y="55"
   inkscape:current-layer="svg2"
   inkscape:showpageshadow="false"
   width="208px"
   height="303px"
   showgrid="false"
   inkscape:window-maximized="1" />
	<path
   id="path5"
   d="m 160.36133,232.49688 c 0,5.63351 -2.96509,10.23813 -6.60107,10.23813 H 6.8913283 c -3.6275397,0 -6.59262675,-4.60462 -6.59262675,-10.23813 v -340.41141 c 0,-5.62551 2.96508705,-10.23812 6.59262675,-10.23812 H 153.76026 c 3.63598,0 6.60107,4.61261 6.60107,10.23812 z"
   style="fill:#ffffff;fill-rule:nonzero;stroke:#000000;stroke-width:0.59740311;stroke-miterlimit:4"
   inkscape:connector-curvature="0" /><g
   style="fill:#e61408;fill-opacity:1;fill-rule:nonzero;stroke:#000000;stroke-miterlimit:4"
   id="g3420"
   transform="matrix(0.96083833,0,0,1.4857462,1.3480974,-118.17874)">
			<path
   style="fill:#e61408;fill-opacity:1;stroke:none"
   d="m 17.374023,7.8017578 v 3.1562502 h -4.28125 v 3.974609 c 0.240235,-0.414551 0.504883,-0.727539 0.793457,-0.938965 0.288575,-0.210937 0.593262,-0.316894 0.914063,-0.316894 0.99414,0 1.775391,0.562012 2.344727,1.685059 0.569336,1.123046 0.854003,2.650878 0.854003,4.583007 0,1.964844 -0.285644,3.494629 -0.856933,4.589356 -0.571289,1.095215 -1.375977,1.642578 -2.413574,1.642578 -0.434571,0 -0.869141,-0.08154 -1.303711,-0.243652 -0.434571,-0.162598 -0.888672,-0.414551 -1.363282,-0.756348 v -3.9375 h 0.65625 c 0.02393,1.189453 0.163086,2.075195 0.416993,2.657715 0.253906,0.582519 0.626464,0.873535 1.117675,0.873535 0.531739,0 0.924317,-0.395996 1.178223,-1.188477 0.253906,-0.79248 0.380859,-2.001464 0.380859,-3.626464 0,-1.600586 -0.124511,-2.797364 -0.373535,-3.589844 -0.249023,-0.792481 -0.626465,-1.188965 -1.132324,-1.188965 -0.273437,0 -0.516113,0.126465 -0.729004,0.378906 -0.21289,0.25293 -0.411621,0.643555 -0.596191,1.172852 H 12.436523 V 7.8017578 Z"
   id="path3422"
   inkscape:connector-curvature="0" />
		</g><g
   style="fill:#e61408;fill-opacity:1;fill-rule:nonzero;stroke:#000000;stroke-miterlimit:4"
   id="g3424"
   transform="matrix(0.96083833,0,0,1.4857462,-0.80839548,-117.15583)">
			<path
   style="fill:#e61408;fill-opacity:1;stroke:none"
   d="m 149.27246,234.44482 v -3.15625 h 4.28125 v -3.97461 c -0.24023,0.41504 -0.50586,0.72852 -0.79394,0.93946 -0.28809,0.21094 -0.59278,0.3164 -0.91407,0.3164 -0.99414,0 -1.77539,-0.56152 -2.34472,-1.68457 -0.56934,-1.12304 -0.85352,-2.65136 -0.85352,-4.583 0,-1.96485 0.28516,-3.49414 0.85645,-4.58985 0.57129,-1.09472 1.37597,-1.64258 2.41308,-1.64258 0.43555,0 0.86914,0.082 1.30469,0.24414 0.43359,0.16211 0.88867,0.41407 1.36328,0.75586 v 3.9375 h -0.65625 c -0.0244,-1.18945 -0.16406,-2.07421 -0.41797,-2.65722 -0.2539,-0.58301 -0.62597,-0.87403 -1.11719,-0.87403 -0.53125,0 -0.92382,0.39649 -1.17773,1.18946 -0.25391,0.79199 -0.38086,2.00097 -0.38086,3.62597 0,1.60059 0.12402,2.79786 0.37305,3.58985 0.24902,0.79199 0.62695,1.18847 1.13281,1.18847 0.27344,0 0.51563,-0.12597 0.72852,-0.3789 0.21289,-0.25196 0.41211,-0.64258 0.5957,-1.17188 h 0.54492 v 8.92578 z"
   id="path3426"
   inkscape:connector-curvature="0" />
		</g>
<path
   style="fill:#e61408;fill-rule:nonzero;stroke:none;stroke-width:1.19480622;stroke-miterlimit:4"
   d="m 72.768375,38.309297 c -4.138917,0.01337 -7.504579,5.484115 -7.477215,12.196077 0.05803,14.232864 11.618823,24.525969 15.026791,35.767715 3.407978,-11.241746 14.992892,-21.534851 15.050918,-35.767715 0.02736,-6.711962 -3.338298,-12.182305 -7.477215,-12.196077 -4.138927,-0.01337 -7.5615,5.433751 -7.573703,12.158786 -0.01219,-6.725035 -3.410649,-12.17186 -7.549576,-12.158786 z"
   id="path2170"
   inkscape:connector-curvature="0" /><path
   id="path2225"
   d="m 13.516084,-74.24356 c -1.244506,0.0042 -2.256509,1.648988 -2.248274,3.66717 0.01744,4.279602 3.493598,7.374582 4.518322,10.754799 1.024725,-3.380217 4.508129,-6.475197 4.525578,-10.754799 0.0082,-2.018182 -1.003779,-3.663029 -2.248285,-3.66717 -1.244516,-0.0039 -2.273631,1.633843 -2.277293,3.655957 -0.0037,-2.022114 -1.025531,-3.659888 -2.270048,-3.655957 z"
   style="fill:#e61408;fill-rule:nonzero;stroke:none;stroke-width:1.19480622;stroke-miterlimit:4"
   inkscape:connector-curvature="0" /><use
   x="0"
   y="0"
   xlink:href="#path2225"
   id="use2231"
   transform="matrix(1,0,0,-1,129.08051,124.12858)"
   width="167.08643"
   height="242.66748" /><use
   x="0"
   y="0"
   xlink:href="#path2170"
   id="use2196"
   transform="translate(-34.403362,-136.48464)"
   width="167.08643"
   height="242.66748" /><use
   x="0"
   y="0"
   xlink:href="#path2170"
   id="use2198"
   transform="translate(33.499469,-136.48464)"
   width="167.08643"
   height="242.66748" /><use
   x="0"
   y="0"
   xlink:href="#path2170"
   id="use2200"
   transform="matrix(1,0,0,-1,-34.403362,261.03399)"
   width="167.08643"
   height="242.66748" /><use
   x="0"
   y="0"
   xlink:href="#path2170"
   id="use2204"
   transform="matrix(1,0,0,-1,33.499469,261.03399)"
   width="167.08643"
   height="242.66748" /></svg>