<?xml version="1.0" encoding="UTF-8" standalone="no"?>
<!-- Generator: Adobe Illustrator 9.0, SVG Export Plug-In  -->

<!-- This set of SVG files is a complete cards game with figures, numbers	-->

<!--    and backs of cards completely designed in SVG.				-->

<!--    									-->

<!--    Copyright (C) 2004 David Bellot						-->

<!--										-->

<!--    This library is free software; you can redistribute it and/or		-->

<!--    modify it under the terms of the GNU Lesser General Public		-->

<!--    License as published by the Free Software Foundation; either		-->

<!--    version 2 of the License, or (at your option) any later version		-->

<!--										-->

<!--    This library is distributed in the hope that it will be useful,		-->

<!--    but WITHOUT ANY WARRANTY; without even the implied warranty of		-->

<!--    MERCHANTABILITY or FITNESS FOR A PARTICULAR PURPOSE.  See the GNU	-->

<!--    Lesser General Public License for more details.				-->

<!--										-->

<!--    You should have received a copy of the GNU Lesser General Public	-->

<!--    License along with this library; if not, write to the Free Software	-->

<!--    Foundation, Inc., 59 Temple Place, Suite 330, Boston, MA 02111-1307  USA-->

<!--										-->

<!--    Contact the author David Bellot at bellot@stat.berkeley.edu or 		-->

<!--    david.bellot@free.fr or yimyom@users.sourceforge.net			-->

<svg
   xmlns:dc="http://purl.org/dc/elements/1.1/"
   xmlns:cc="http://creativecommons.org/ns#"
   xmlns:rdf="http://www.w3.org/1999/02/22-rdf-syntax-ns#"
   xmlns:svg="http://www.w3.org/2000/svg"
   xmlns="http://www.w3.org/2000/svg"
   xmlns:xlink="http://www.w3.org/1999/xlink"
   xmlns:sodipodi="http://sodipodi.sourceforge.net/DTD/sodipodi-0.dtd"
   xmlns:inkscape="http://www.inkscape.org/namespaces/inkscape"
   width="208"
   height="303"
   viewBox="0 0 167.08643 242.66748"
   xml:space="preserve"
   id="svg2"
   sodipodi:version="0.32"
   inkscape:version="0.92.4 (5da689c313, 2019-01-14)"
   sodipodi:docname="09_of_hearts.svg"
   inkscape:output_extension="org.inkscape.output.svg.inkscape"
   version="1.0"><metadata
   id="metadata90"><rdf:RDF><cc:Work
       rdf:about=""><dc:format>image/svg+xml</dc:format><dc:type
         rdf:resource="http://purl.org/dc/dcmitype/StillImage" /></cc:Work></rdf:RDF></metadata><defs
   id="defs88" /><sodipodi:namedview
   inkscape:window-height="1671"
   inkscape:window-width="3200"
   inkscape:pageshadow="2"
   inkscape:pageopacity="0.0"
   guidetolerance="10.0"
   gridtolerance="10.0"
   objecttolerance="10.0"
   borderopacity="1.0"
   bordercolor="#666666"
   pagecolor="#ffffff"
   id="base"
   inkscape:zoom="7.0306383"
   inkscape:cx="124.71406"
   inkscape:cy="56.306687"
   inkscape:window-x="0"
   inkscape:window-y="55"
   inkscape:current-layer="svg2"
   inkscape:showpageshadow="false"
   width="208px"
   height="303px"
   showgrid="false"
   inkscape:window-maximized="1" />
	<path
   id="path5"
   d="m 160.36133,232.49688 c 0,5.63351 -2.96509,10.23813 -6.60107,10.23813 H 6.8913283 c -3.6275397,0 -6.59262675,-4.60462 -6.59262675,-10.23813 v -340.41141 c 0,-5.62551 2.96508705,-10.23812 6.59262675,-10.23812 H 153.76026 c 3.63598,0 6.60107,4.61261 6.60107,10.23812 z"
   style="fill:#ffffff;fill-rule:nonzero;stroke:#000000;stroke-width:0.59740311;stroke-miterlimit:4"
   inkscape:connector-curvature="0" /><g
   style="fill:#e61408;fill-opacity:1;fill-rule:nonzero;stroke:#000000;stroke-miterlimit:4"
   id="g5282"
   transform="matrix(0.96083833,0,0,1.4857462,1.5709474,-117.92338)">
			<path
   style="fill:#e61408;fill-opacity:1;stroke:none"
   d="m 15.970215,18.490234 c -0.242188,0.426758 -0.507813,0.747071 -0.797852,0.96045 -0.290039,0.213378 -0.604492,0.319824 -0.942383,0.319824 -0.813476,0 -1.456054,-0.538086 -1.927734,-1.614746 -0.47168,-1.076172 -0.707031,-2.562012 -0.707031,-4.457032 0,-1.999511 0.262695,-3.53955 0.787109,-4.6201168 0.524414,-1.0800781 1.275391,-1.6206055 2.25293,-1.6206055 1.105469,0 1.943359,0.7456055 2.511719,2.2358398 0.570312,1.4907225 0.854492,3.6738285 0.854492,6.5498045 0,3.279297 -0.31543,5.754395 -0.946289,7.425781 -0.629883,1.671875 -1.567383,2.507325 -2.811524,2.507325 -0.323242,0 -0.670898,-0.06006 -1.041992,-0.179688 -0.37207,-0.120117 -0.771484,-0.299316 -1.200195,-0.539062 v -3.1875 h 0.65625 c 0.09668,0.821289 0.269531,1.443359 0.519531,1.866211 0.25,0.422851 0.572266,0.633789 0.967774,0.633789 0.636718,0 1.097656,-0.493164 1.383789,-1.479493 0.286132,-0.986328 0.432617,-2.586425 0.441406,-4.800781 z M 14.76709,8.8642578 c -0.37793,0 -0.646485,0.3535156 -0.806641,1.0595703 -0.160156,0.7065429 -0.240234,1.9316409 -0.240234,3.6748049 0,1.743652 0.08008,2.96875 0.240234,3.674805 0.160157,0.706543 0.428711,1.05957 0.806641,1.05957 0.37793,0 0.646484,-0.353027 0.80664,-1.05957 0.160157,-0.706055 0.240235,-1.931153 0.240235,-3.674805 0,-1.743164 -0.08008,-2.968262 -0.240235,-3.6748049 C 15.413574,9.2177734 15.14502,8.8642578 14.76709,8.8642578 Z"
   id="path5284"
   inkscape:connector-curvature="0" />
		</g><g
   style="fill:#e61408;fill-opacity:1;fill-rule:nonzero;stroke:#000000;stroke-miterlimit:4"
   id="g5286"
   transform="matrix(0.96083833,0,0,1.4857462,-0.73520363,-117.41119)">
			<path
   style="fill:#e61408;fill-opacity:1;stroke:none"
   d="m 150.36816,223.75732 c 0.24219,-0.42773 0.50782,-0.74804 0.79883,-0.96093 0.28906,-0.21289 0.60352,-0.32032 0.94141,-0.32032 0.81445,0 1.45703,0.53907 1.92773,1.61524 0.47266,1.07617 0.70703,2.5625 0.70703,4.45703 0,2 -0.26171,3.53906 -0.78711,4.62012 -0.52343,1.08008 -1.27539,1.62011 -2.25195,1.62011 -1.10547,0 -1.94336,-0.74511 -2.51367,-2.23535 -0.56836,-1.49121 -0.85352,-3.67383 -0.85352,-6.5498 0,-3.2793 0.31641,-5.75391 0.94532,-7.42578 0.63086,-1.67188 1.56836,-2.50782 2.8125,-2.50782 0.32422,0 0.66992,0.0606 1.04297,0.17969 0.37109,0.1211 0.77148,0.29981 1.19921,0.53906 v 3.1875 h -0.65625 c -0.0957,-0.82031 -0.26953,-1.44336 -0.51953,-1.86523 -0.25,-0.42383 -0.57226,-0.63477 -0.96679,-0.63477 -0.63672,0 -1.09766,0.49414 -1.38477,1.48047 -0.28516,0.98633 -0.43359,2.58594 -0.44141,4.80078 z m 1.20313,9.625 c 0.37891,0 0.64648,-0.35351 0.80664,-1.05859 0.16016,-0.70703 0.24023,-1.93164 0.24023,-3.67578 0,-1.74317 -0.0801,-2.96875 -0.24023,-3.67383 -0.16016,-0.70703 -0.42773,-1.06055 -0.80664,-1.06055 -0.37695,0 -0.64649,0.35352 -0.80664,1.06055 -0.16016,0.70508 -0.24024,1.93067 -0.24024,3.67383 0,1.74414 0.0801,2.96875 0.24024,3.67578 0.16015,0.70508 0.42969,1.05859 0.80664,1.05859 z"
   id="path5288"
   inkscape:connector-curvature="0" />
		</g>
<path
   style="fill:#e61408;fill-rule:nonzero;stroke:none;stroke-width:1.19480622;stroke-miterlimit:4"
   d="m 72.768375,38.309297 c -4.138917,0.01337 -7.504579,5.484115 -7.477215,12.196077 0.05803,14.232864 11.618823,24.525969 15.026791,35.767715 3.407978,-11.241746 14.992892,-21.534851 15.050918,-35.767715 0.02736,-6.711962 -3.338298,-12.182305 -7.477215,-12.196077 -4.138927,-0.01337 -7.5615,5.433751 -7.573703,12.158786 -0.01219,-6.725035 -3.410649,-12.17186 -7.549576,-12.158786 z"
   id="path2170"
   inkscape:connector-curvature="0" /><path
   id="path2225"
   d="m 13.516084,-74.24356 c -1.244506,0.0042 -2.256509,1.648988 -2.248274,3.66717 0.01744,4.279602 3.493598,7.374582 4.518322,10.754799 1.024725,-3.380217 4.508129,-6.475197 4.525578,-10.754799 0.0082,-2.018182 -1.003779,-3.663029 -2.248285,-3.66717 -1.244516,-0.0039 -2.273631,1.633843 -2.277293,3.655957 -0.0037,-2.022114 -1.025531,-3.659888 -2.270048,-3.655957 z"
   style="fill:#e61408;fill-rule:nonzero;stroke:none;stroke-width:1.19480622;stroke-miterlimit:4"
   inkscape:connector-curvature="0" /><use
   x="0"
   y="0"
   xlink:href="#path2225"
   id="use2231"
   transform="matrix(1,0,0,-1,129.08051,124.12858)"
   width="167.08643"
   height="242.66748" /><use
   x="0"
   y="0"
   xlink:href="#path2170"
   id="use2200"
   transform="translate(-34.403363,-136.48464)"
   width="167.08643"
   height="242.66748" /><use
   x="0"
   y="0"
   xlink:href="#use2200"
   id="use2202"
   transform="translate(67.902828)"
   width="167.08643"
   height="242.66748" /><use
   x="0"
   y="0"
   xlink:href="#use2202"
   id="use2204"
   transform="translate(-67.902833,90.978762)"
   width="167.08643"
   height="242.66748" /><use
   x="0"
   y="0"
   xlink:href="#use2204"
   id="use2206"
   transform="translate(67.902828,-4.4643413e-6)"
   width="167.08643"
   height="242.66748" /><path
   id="use2214"
   d="m 106.26784,222.7247 c -4.13891,-0.0134 -7.50457,-5.48412 -7.477215,-12.19608 0.05803,-14.23285 11.618835,-24.52597 15.026805,-35.7677 3.40797,11.24173 14.99288,21.53485 15.05092,35.7677 0.0274,6.71196 -3.33832,12.18231 -7.47722,12.19608 -4.13893,0.0134 -7.5615,-5.43375 -7.5737,-12.15879 -0.0122,6.72504 -3.41067,12.17186 -7.54959,12.15879 z"
   style="fill:#e61408;fill-rule:nonzero;stroke:none;stroke-width:1.19480622;stroke-miterlimit:4"
   inkscape:connector-curvature="0" /><use
   x="0"
   y="0"
   xlink:href="#path2170"
   id="use2222"
   transform="matrix(1,0,0,-1,-34.403362,261.03399)"
   width="167.08643"
   height="242.66748" /><use
   x="0"
   y="0"
   xlink:href="#path2170"
   id="use2224"
   transform="matrix(1,0,0,-1,32.344443,170.05523)"
   width="167.08643"
   height="242.66748" /><use
   x="0"
   y="0"
   xlink:href="#path2170"
   id="use2226"
   transform="matrix(1,0,0,-1,-34.403362,170.05523)"
   width="167.08643"
   height="242.66748" /></svg>