P1
70 70
0000000000000000000000000000000000000000000000000000000000000000000000
0000000000000000000000000000000000000000000000000000000000000000000000
0000000000000000000000000000000000000000000000000000000000000000000000
0000000000000000000000000000000000000000000000000000000000000000000000
0000000000000000000000000000001010101010000000000000000000000000000000
0000000000000000000000000010111010110111110100000000000000000000000000
0000000000000000000000010111010000000000101111000000000000000000000000
0000000000000000000001110100000000000000000001111000000000000000000000
0000000000000000000111100000000000000000000000011110000000000000000000
0000000000000000001100000000000000000000000000000011000000000000000000
0000000000000000111000000000000000000000000000000001110000000000000000
0000000000000001110000000000000000000000000000000000011000000000000000
0000000000000011000000000000000000000000000000000000001100000000000000
0000000000000110000000000000000000000000000000000000000110000000000000
0000000000001100000000000000000000000000000000000000000111000000000000
0000000000011100000000000000000000000000000000000000000001100000000000
0000000000110000000000000000000000000000000000000000000000110000000000
0000000000110000000000000000000000000000000000000000000000110000000000
0000000001100000000000000000000000000000000000000000000000011000000000
0000000011000000000000000000000000000000000000000000000000001100000000
0000000011000000000000000000000000000000000000000000000000001100000000
0000000010000000000000000000000000000000000000000000000000000110000000
0000000110000000000000000000000000000000000000000000000000000010000000
0000001100000000000000000000000000000000000000000000000000000011000000
0000000100000000000000000000000000000000000000000000000000000010000000
0000001100000000000000000000000000000000000000000000000000000011000000
0000011000000000000000000000000000000000000000000000000000000001100000
0000001000000000000000000000000000000000000000000000000000000000100000
0000010000000000000000000000000000000000000000000000000000000001000000
0000011000000000000000000000000000000000000000000000000000000001100000
0000110000000000000000000000000000000000000000000000000000000000110000
0000010000000000000000000000000000000000000000000000000000000000010000
0000100000000000000000000000000000000000000000000000000000000000100000
0000010000000000000000000000000000000000000000000000000000000000010000
0000100000000000000000000000000000000000000000000000000000000000100000
0000010000000000000000000000000000000000000000000000000000000000010000
0000100000000000000000000000000000000000000000000000000000000000100000
0000010000000000000000000000000000000000000000000000000000000000010000
0000100000000000000000000000000000000000000000000000000000000000100000
0000110000000000000000000000000000000000000000000000000000000000110000
0000011000000000000000000000000000000000000000000000000000000001100000
0000001000000000000000000000000000000000000000000000000000000000100000
0000010000000000000000000000000000000000000000000000000000000001000000
0000011000000000000000000000000000000000000000000000000000000001100000
0000001100000000000000000000000000000000000000000000000000000011000000
0000000100000000000000000000000000000000000000000000000000000001000000
0000001100000000000000000000000000000000000000000000000000000011000000
0000000110000000000000000000000000000000000000000000000000000110000000
0000000010000000000000000000000000000000000000000000000000000100000000
0000000011000000000000000000000000000000000000000000000000001100000000
0000000011000000000000000000000000000000000000000000000000001100000000
0000000001100000000000000000000000000000000000000000000000011000000000
0000000000110000000000000000000000000000000000000000000000110000000000
0000000000110000000000000000000000000000000000000000000000110000000000
0000000000011000000000000000000000000000000000000000000001100000000000
0000000000001100000000000000000000000000000000000000000011000000000000
0000000000000110000000000000000000000000000000000000000110000000000000
0000000000000011000000000000000000000000000000000000011100000000000000
0000000000000011110000000000000000000000000000000000111000000000000000
0000000000000000011000000000000000000000000000000001110000000000000000
0000000000000000001110000000000000000000000000000111000000000000000000
0000000000000000000011100000000000000000000000001110000000000000000000
0000000000000000000001111000000000000000000011111000000000000000000000
0000000000000000000000001111010000000000101110100000000000000000000000
0000000000000000000000000010111101010101110100000000000000000000000000
0000000000000000000000000000000101101101000000000000000000000000000000
0000000000000000000000000000000000000000000000000000000000000000000000
0000000000000000000000000000000000000000000000000000000000000000000000
0000000000000000000000000000000000000000000000000000000000000000000000
0000000000000000000000000000000000000000000000000000000000000000000000
